<mxfile host="65bd71144e">
    <diagram id="XluC-bqnIHDTGw1OhcCd" name="Page-1">
        <mxGraphModel dx="1164" dy="664" grid="0" gridSize="10" guides="1" tooltips="1" connect="1" arrows="1" fold="1" page="1" pageScale="1" pageWidth="1100" pageHeight="850" background="#ffffff" math="0" shadow="1">
            <root>
                <mxCell id="0"/>
                <mxCell id="1" parent="0"/>
                <mxCell id="133" value="" style="rounded=0;whiteSpace=wrap;html=1;fillColor=none;dashed=1;strokeColor=#CCCCFF;strokeWidth=8;" parent="1" vertex="1">
                    <mxGeometry x="297" y="79" width="230" height="1130" as="geometry"/>
                </mxCell>
                <mxCell id="134" value="" style="rounded=0;whiteSpace=wrap;html=1;fillColor=none;dashed=1;strokeColor=#CCCCFF;strokeWidth=8;" parent="1" vertex="1">
                    <mxGeometry x="605" y="79" width="230" height="1130" as="geometry"/>
                </mxCell>
                <mxCell id="135" value="" style="rounded=0;whiteSpace=wrap;html=1;fillColor=none;dashed=1;strokeColor=#CCCCFF;strokeWidth=8;" parent="1" vertex="1">
                    <mxGeometry x="897" y="79" width="230" height="1130" as="geometry"/>
                </mxCell>
                <mxCell id="4" value="" style="html=1;strokeColor=#000000;edgeStyle=elbowEdgeStyle;" parent="1" source="3" target="2" edge="1">
                    <mxGeometry relative="1" as="geometry"/>
                </mxCell>
                <mxCell id="6" value="" style="edgeStyle=elbowEdgeStyle;html=1;strokeColor=#030303;exitX=0;exitY=0.5;exitDx=0;exitDy=0;" parent="1" source="5" target="2" edge="1">
                    <mxGeometry relative="1" as="geometry"/>
                </mxCell>
                <mxCell id="10" value="" style="edgeStyle=elbowEdgeStyle;html=1;strokeColor=#030303;" parent="1" source="7" target="2" edge="1">
                    <mxGeometry relative="1" as="geometry"/>
                </mxCell>
                <mxCell id="12" value="" style="edgeStyle=elbowEdgeStyle;html=1;strokeColor=#080808;" parent="1" source="11" target="2" edge="1">
                    <mxGeometry relative="1" as="geometry"/>
                </mxCell>
                <mxCell id="2" value="Dashboard" style="ellipse;whiteSpace=wrap;html=1;fillColor=#6a00ff;fontColor=#ffffff;strokeColor=#3700CC;" parent="1" vertex="1">
                    <mxGeometry x="115" y="591" width="120" height="80" as="geometry"/>
                </mxCell>
                <mxCell id="3" value="Resumen 24 hrs" style="whiteSpace=wrap;html=1;fillColor=#B3B3B3;strokeColor=#CCCCCC;fontColor=#ffffff;" parent="1" vertex="1">
                    <mxGeometry x="355" y="356" width="120" height="40" as="geometry"/>
                </mxCell>
                <mxCell id="5" value="Temperatura máxima" style="whiteSpace=wrap;html=1;fillColor=#e51400;strokeColor=#B20000;fontColor=#ffffff;" parent="1" vertex="1">
                    <mxGeometry x="355" y="516" width="120" height="40" as="geometry"/>
                </mxCell>
                <mxCell id="48" value="" style="edgeStyle=none;html=1;strokeColor=#030303;fontColor=#FFFFFF;entryX=1;entryY=0.5;entryDx=0;entryDy=0;exitX=0;exitY=0.5;exitDx=0;exitDy=0;" parent="1" source="47" target="7" edge="1">
                    <mxGeometry relative="1" as="geometry"/>
                </mxCell>
                <mxCell id="54" style="edgeStyle=none;html=1;exitX=0;exitY=0.5;exitDx=0;exitDy=0;entryX=1;entryY=0.5;entryDx=0;entryDy=0;strokeColor=#030303;fontColor=#FFFFFF;" parent="1" source="53" target="7" edge="1">
                    <mxGeometry relative="1" as="geometry"/>
                </mxCell>
                <mxCell id="55" style="edgeStyle=none;html=1;exitX=0;exitY=0.5;exitDx=0;exitDy=0;strokeColor=#030303;fontColor=#FFFFFF;entryX=1;entryY=0.5;entryDx=0;entryDy=0;" parent="1" source="56" target="7" edge="1">
                    <mxGeometry relative="1" as="geometry">
                        <mxPoint x="655" y="981" as="sourcePoint"/>
                    </mxGeometry>
                </mxCell>
                <mxCell id="58" style="edgeStyle=none;html=1;exitX=0;exitY=0.5;exitDx=0;exitDy=0;entryX=1;entryY=0.5;entryDx=0;entryDy=0;strokeColor=#030303;fontColor=#FFFFFF;" parent="1" source="49" target="7" edge="1">
                    <mxGeometry relative="1" as="geometry"/>
                </mxCell>
                <mxCell id="130" style="edgeStyle=none;html=1;exitX=-0.001;exitY=0.622;exitDx=0;exitDy=0;entryX=1;entryY=0.5;entryDx=0;entryDy=0;strokeColor=#030303;fontColor=#FFFFFF;exitPerimeter=0;" parent="1" source="129" target="7" edge="1">
                    <mxGeometry relative="1" as="geometry"/>
                </mxCell>
                <mxCell id="7" value="Precipitación" style="whiteSpace=wrap;html=1;fillColor=#60a917;fontColor=#ffffff;strokeColor=#2D7600;" parent="1" vertex="1">
                    <mxGeometry x="355" y="816" width="120" height="40" as="geometry"/>
                </mxCell>
                <mxCell id="11" value="Temperatura mínima" style="whiteSpace=wrap;html=1;fillColor=#1ba1e2;strokeColor=#006EAF;fontColor=#ffffff;" parent="1" vertex="1">
                    <mxGeometry x="355" y="676" width="120" height="40" as="geometry"/>
                </mxCell>
                <mxCell id="45" value="" style="group;" parent="1" vertex="1" connectable="0">
                    <mxGeometry x="645" y="591" width="160" height="171.30000000000007" as="geometry"/>
                </mxCell>
                <mxCell id="34" value="Comportamiento diario" style="whiteSpace=wrap;html=1;fillColor=#1ba1e2;strokeColor=#006EAF;fontColor=#ffffff;" parent="45" vertex="1">
                    <mxGeometry width="160" height="35.2" as="geometry"/>
                </mxCell>
                <mxCell id="35" value="Caracterización" style="whiteSpace=wrap;html=1;fillColor=#1ba1e2;strokeColor=#006EAF;fontColor=#ffffff;" parent="45" vertex="1">
                    <mxGeometry y="60" width="160" height="22.44" as="geometry"/>
                </mxCell>
                <mxCell id="36" value="Anomalía mensual" style="rounded=0;whiteSpace=wrap;html=1;strokeColor=#006EAF;fontColor=#ffffff;fillColor=#1ba1e2;" parent="45" vertex="1">
                    <mxGeometry y="102.60304347826093" width="160" height="24.48695652173913" as="geometry"/>
                </mxCell>
                <mxCell id="37" value="Mapa de anomalías" style="whiteSpace=wrap;html=1;fillColor=#1ba1e2;strokeColor=#006EAF;fontColor=#ffffff;" parent="45" vertex="1">
                    <mxGeometry y="142.60434782608706" width="160" height="28.695652173913043" as="geometry"/>
                </mxCell>
                <mxCell id="46" value="" style="group;" parent="1" vertex="1" connectable="0">
                    <mxGeometry x="645" y="351" width="160" height="180" as="geometry"/>
                </mxCell>
                <mxCell id="18" value="Comportamiento diario" style="whiteSpace=wrap;html=1;fillColor=#e51400;strokeColor=#B20000;fontColor=#ffffff;" parent="46" vertex="1">
                    <mxGeometry width="160" height="30" as="geometry"/>
                </mxCell>
                <mxCell id="22" value="Caracterización" style="whiteSpace=wrap;html=1;fillColor=#e51400;strokeColor=#B20000;fontColor=#ffffff;" parent="46" vertex="1">
                    <mxGeometry y="50" width="160" height="30" as="geometry"/>
                </mxCell>
                <mxCell id="26" value="Anomalía mensual" style="rounded=0;whiteSpace=wrap;html=1;strokeColor=#B20000;fontColor=#ffffff;fillColor=#e51400;" parent="46" vertex="1">
                    <mxGeometry y="100" width="160" height="30" as="geometry"/>
                </mxCell>
                <mxCell id="31" value="Mapa de anomalías" style="whiteSpace=wrap;html=1;fillColor=#e51400;strokeColor=#B20000;fontColor=#ffffff;" parent="46" vertex="1">
                    <mxGeometry y="150" width="160" height="30" as="geometry"/>
                </mxCell>
                <mxCell id="60" value="" style="group;" parent="1" vertex="1" connectable="0">
                    <mxGeometry x="645" y="191" width="160" height="90" as="geometry"/>
                </mxCell>
                <mxCell id="14" value="Tmax, Tmin y PP diaria" style="whiteSpace=wrap;html=1;fillColor=#B3B3B3;strokeColor=#CCCCCC;fontColor=#FFFFFF;" parent="60" vertex="1">
                    <mxGeometry width="160" height="30" as="geometry"/>
                </mxCell>
                <mxCell id="16" value="Distribución espacial de Tmax, Tmin y PP" style="whiteSpace=wrap;html=1;fillColor=#B3B3B3;strokeColor=#CCCCCC;fontColor=#FFFFFF;" parent="60" vertex="1">
                    <mxGeometry y="50" width="160" height="40" as="geometry"/>
                </mxCell>
                <mxCell id="62" value="" style="edgeStyle=none;html=1;strokeColor=#030303;fontColor=#FFFFFF;entryX=1;entryY=0.5;entryDx=0;entryDy=0;" parent="1" source="61" target="16" edge="1">
                    <mxGeometry relative="1" as="geometry"/>
                </mxCell>
                <mxCell id="64" style="edgeStyle=none;html=1;exitX=0;exitY=0.5;exitDx=0;exitDy=0;entryX=1;entryY=0.5;entryDx=0;entryDy=0;strokeColor=#030303;fontColor=#FFFFFF;" parent="1" source="63" target="16" edge="1">
                    <mxGeometry relative="1" as="geometry"/>
                </mxCell>
                <mxCell id="66" style="edgeStyle=none;html=1;exitX=0;exitY=0.5;exitDx=0;exitDy=0;entryX=1;entryY=0.5;entryDx=0;entryDy=0;strokeColor=#030303;fontColor=#FFFFFF;" parent="1" source="65" target="16" edge="1">
                    <mxGeometry relative="1" as="geometry"/>
                </mxCell>
                <mxCell id="68" value="Scatter plot de temperaturas + barras de precipitación" style="whiteSpace=wrap;html=1;fillColor=#f0a30a;strokeColor=#BD7000;fontColor=#000000;" parent="1" vertex="1">
                    <mxGeometry x="955" y="151" width="130" height="50" as="geometry"/>
                </mxCell>
                <mxCell id="70" style="edgeStyle=none;html=1;exitX=0;exitY=0.5;exitDx=0;exitDy=0;entryX=1;entryY=0.5;entryDx=0;entryDy=0;strokeColor=#030303;fontColor=#FFFFFF;" parent="1" source="68" target="14" edge="1">
                    <mxGeometry relative="1" as="geometry"/>
                </mxCell>
                <mxCell id="81" value="" style="group;" parent="1" vertex="1" connectable="0">
                    <mxGeometry x="955" y="356" width="130" height="170" as="geometry"/>
                </mxCell>
                <mxCell id="72" value="Serie temporal de temperatura máxima" style="whiteSpace=wrap;html=1;fillColor=#f0a30a;strokeColor=#BD7000;fontColor=#000000;" parent="81" vertex="1">
                    <mxGeometry y="-5" width="130" height="30" as="geometry"/>
                </mxCell>
                <mxCell id="75" value="Tabla de caracterización" style="whiteSpace=wrap;html=1;fillColor=#f0a30a;strokeColor=#BD7000;fontColor=#000000;" parent="81" vertex="1">
                    <mxGeometry y="45" width="130" height="30" as="geometry"/>
                </mxCell>
                <mxCell id="77" value="Gráfico de barras con anomalías" style="whiteSpace=wrap;html=1;fillColor=#f0a30a;strokeColor=#BD7000;fontColor=#000000;" parent="81" vertex="1">
                    <mxGeometry y="95" width="130" height="30" as="geometry"/>
                </mxCell>
                <mxCell id="79" value="Mapa con distribución de anomalías" style="whiteSpace=wrap;html=1;fillColor=#f0a30a;strokeColor=#BD7000;fontColor=#000000;" parent="81" vertex="1">
                    <mxGeometry y="145" width="130" height="30" as="geometry"/>
                </mxCell>
                <mxCell id="124" style="edgeStyle=none;html=1;exitX=0;exitY=0.5;exitDx=0;exitDy=0;entryX=1;entryY=0.5;entryDx=0;entryDy=0;strokeColor=#030303;fontColor=#FFFFFF;" parent="1" source="120" target="47" edge="1">
                    <mxGeometry relative="1" as="geometry"/>
                </mxCell>
                <mxCell id="47" value="Precipitación diaria" style="whiteSpace=wrap;html=1;fillColor=#60a917;strokeColor=#2D7600;fontColor=#ffffff;" parent="1" vertex="1">
                    <mxGeometry x="645" y="811" width="160" height="30" as="geometry"/>
                </mxCell>
                <mxCell id="125" style="edgeStyle=none;html=1;exitX=0;exitY=0.5;exitDx=0;exitDy=0;entryX=1;entryY=0.5;entryDx=0;entryDy=0;strokeColor=#030303;fontColor=#FFFFFF;" parent="1" source="121" target="49" edge="1">
                    <mxGeometry relative="1" as="geometry"/>
                </mxCell>
                <mxCell id="49" value="Caracterización" style="whiteSpace=wrap;html=1;fillColor=#60a917;strokeColor=#2D7600;fontColor=#ffffff;" parent="1" vertex="1">
                    <mxGeometry x="645" y="921" width="160" height="30" as="geometry"/>
                </mxCell>
                <mxCell id="126" style="edgeStyle=none;html=1;exitX=0;exitY=0.5;exitDx=0;exitDy=0;entryX=1;entryY=0.5;entryDx=0;entryDy=0;strokeColor=#030303;fontColor=#FFFFFF;" parent="1" source="122" target="51" edge="1">
                    <mxGeometry relative="1" as="geometry"/>
                </mxCell>
                <mxCell id="51" value="Anomalías mensuales" style="whiteSpace=wrap;html=1;fillColor=#60a917;strokeColor=#2D7600;fontColor=#ffffff;" parent="1" vertex="1">
                    <mxGeometry x="645" y="971" width="160" height="30" as="geometry"/>
                </mxCell>
                <mxCell id="127" style="edgeStyle=none;html=1;exitX=0;exitY=0.5;exitDx=0;exitDy=0;entryX=1;entryY=0.5;entryDx=0;entryDy=0;strokeColor=#030303;fontColor=#FFFFFF;" parent="1" source="123" target="53" edge="1">
                    <mxGeometry relative="1" as="geometry"/>
                </mxCell>
                <mxCell id="53" value="Mapa de anomalías" style="whiteSpace=wrap;html=1;fillColor=#60a917;strokeColor=#2D7600;fontColor=#ffffff;" parent="1" vertex="1">
                    <mxGeometry x="645" y="1021" width="160" height="30" as="geometry"/>
                </mxCell>
                <mxCell id="56" value="Anomalías por decadiarias" style="rounded=0;whiteSpace=wrap;html=1;strokeColor=#2D7600;fontColor=#ffffff;fillColor=#60a917;" parent="1" vertex="1">
                    <mxGeometry x="645" y="1101" width="160" height="30" as="geometry"/>
                </mxCell>
                <mxCell id="108" value="" style="group;" parent="1" vertex="1" connectable="0">
                    <mxGeometry x="955" y="1081" width="130" height="101" as="geometry"/>
                </mxCell>
                <mxCell id="102" value="Mapa de anomalías - 2da decadiaria" style="whiteSpace=wrap;html=1;fillColor=#f0a30a;strokeColor=#BD7000;fontColor=#000000;" parent="108" vertex="1">
                    <mxGeometry y="30" width="130" height="30" as="geometry"/>
                </mxCell>
                <mxCell id="104" value="Mapa de anomalías - 1ra decadiaria" style="whiteSpace=wrap;html=1;fillColor=#f0a30a;strokeColor=#BD7000;fontColor=#000000;" parent="108" vertex="1">
                    <mxGeometry y="-12" width="130" height="32" as="geometry"/>
                </mxCell>
                <mxCell id="105" value="Mapa de anomalías - 3ra decadiaria" style="whiteSpace=wrap;html=1;fillColor=#f0a30a;strokeColor=#BD7000;fontColor=#000000;" parent="108" vertex="1">
                    <mxGeometry y="70" width="130" height="31" as="geometry"/>
                </mxCell>
                <mxCell id="65" value="Mapa de precipitación diaria" style="whiteSpace=wrap;html=1;fillColor=#f0a30a;strokeColor=#BD7000;fontColor=#000000;" parent="1" vertex="1">
                    <mxGeometry x="955" y="311" width="130" height="30" as="geometry"/>
                </mxCell>
                <mxCell id="61" value="Mapa de temperaturas mínimas" style="whiteSpace=wrap;html=1;fillColor=#f0a30a;strokeColor=#BD7000;fontColor=#000000;" parent="1" vertex="1">
                    <mxGeometry x="955" y="261" width="130" height="36.25" as="geometry"/>
                </mxCell>
                <mxCell id="63" value="Mapa de temperaturas máximas" style="whiteSpace=wrap;html=1;fillColor=#f0a30a;strokeColor=#BD7000;fontColor=#000000;" parent="1" vertex="1">
                    <mxGeometry x="955" y="211" width="130" height="40" as="geometry"/>
                </mxCell>
                <mxCell id="112" value="Serie temporal de temperatura mínima" style="whiteSpace=wrap;html=1;fillColor=#f0a30a;strokeColor=#BD7000;fontColor=#000000;" parent="1" vertex="1">
                    <mxGeometry x="955" y="593.6" width="130" height="30" as="geometry"/>
                </mxCell>
                <mxCell id="113" value="Tabla de caracterización" style="whiteSpace=wrap;html=1;fillColor=#f0a30a;strokeColor=#BD7000;fontColor=#000000;" parent="1" vertex="1">
                    <mxGeometry x="955" y="647.22" width="130" height="30" as="geometry"/>
                </mxCell>
                <mxCell id="114" value="Gráfico de barras con anomalías" style="whiteSpace=wrap;html=1;fillColor=#f0a30a;strokeColor=#BD7000;fontColor=#000000;" parent="1" vertex="1">
                    <mxGeometry x="955" y="691" width="130" height="30" as="geometry"/>
                </mxCell>
                <mxCell id="115" value="Mapa con distribución de anomalías" style="whiteSpace=wrap;html=1;fillColor=#f0a30a;strokeColor=#BD7000;fontColor=#000000;" parent="1" vertex="1">
                    <mxGeometry x="955" y="733.6" width="130" height="30" as="geometry"/>
                </mxCell>
                <mxCell id="116" style="edgeStyle=none;html=1;exitX=0;exitY=0.5;exitDx=0;exitDy=0;entryX=1;entryY=0.5;entryDx=0;entryDy=0;strokeColor=#030303;fontColor=#FFFFFF;" parent="1" source="112" target="34" edge="1">
                    <mxGeometry relative="1" as="geometry"/>
                </mxCell>
                <mxCell id="117" style="edgeStyle=none;html=1;exitX=0;exitY=0.5;exitDx=0;exitDy=0;entryX=1;entryY=0.5;entryDx=0;entryDy=0;strokeColor=#030303;fontColor=#FFFFFF;" parent="1" source="113" target="35" edge="1">
                    <mxGeometry relative="1" as="geometry"/>
                </mxCell>
                <mxCell id="118" style="edgeStyle=none;html=1;exitX=0;exitY=0.5;exitDx=0;exitDy=0;entryX=1;entryY=0.5;entryDx=0;entryDy=0;strokeColor=#030303;fontColor=#FFFFFF;" parent="1" source="114" target="36" edge="1">
                    <mxGeometry relative="1" as="geometry"/>
                </mxCell>
                <mxCell id="119" style="edgeStyle=none;html=1;exitX=0;exitY=0.5;exitDx=0;exitDy=0;entryX=1;entryY=0.5;entryDx=0;entryDy=0;strokeColor=#030303;fontColor=#FFFFFF;" parent="1" source="115" target="37" edge="1">
                    <mxGeometry relative="1" as="geometry"/>
                </mxCell>
                <mxCell id="120" value="Gráfico de barras con precipitación acumulada diaria" style="whiteSpace=wrap;html=1;fillColor=#f0a30a;strokeColor=#BD7000;fontColor=#000000;" parent="1" vertex="1">
                    <mxGeometry x="955" y="801" width="130" height="50" as="geometry"/>
                </mxCell>
                <mxCell id="121" value="Tabla de caracterización" style="whiteSpace=wrap;html=1;fillColor=#f0a30a;strokeColor=#BD7000;fontColor=#000000;" parent="1" vertex="1">
                    <mxGeometry x="955" y="921" width="130" height="30" as="geometry"/>
                </mxCell>
                <mxCell id="122" value="Gráfico de barras con anomalías" style="whiteSpace=wrap;html=1;fillColor=#f0a30a;strokeColor=#BD7000;fontColor=#000000;" parent="1" vertex="1">
                    <mxGeometry x="955" y="971" width="130" height="30" as="geometry"/>
                </mxCell>
                <mxCell id="123" value="Mapa con distribución de anomalías" style="whiteSpace=wrap;html=1;fillColor=#f0a30a;strokeColor=#BD7000;fontColor=#000000;" parent="1" vertex="1">
                    <mxGeometry x="955" y="1021" width="130" height="30" as="geometry"/>
                </mxCell>
                <mxCell id="132" style="edgeStyle=none;html=1;exitX=0;exitY=0.5;exitDx=0;exitDy=0;entryX=1;entryY=0.5;entryDx=0;entryDy=0;strokeColor=#030303;fontColor=#FFFFFF;" parent="1" source="131" target="129" edge="1">
                    <mxGeometry relative="1" as="geometry"/>
                </mxCell>
                <mxCell id="129" value="Mapa de precipitación mensual" style="rounded=0;whiteSpace=wrap;html=1;strokeColor=#2D7600;fontColor=#ffffff;fillColor=#60a917;" parent="1" vertex="1">
                    <mxGeometry x="645" y="871" width="160" height="30" as="geometry"/>
                </mxCell>
                <mxCell id="131" value="Mapa con distribución de precipitación mensual" style="whiteSpace=wrap;html=1;fillColor=#f0a30a;strokeColor=#BD7000;fontColor=#000000;" parent="1" vertex="1">
                    <mxGeometry x="955" y="861" width="130" height="50" as="geometry"/>
                </mxCell>
                <mxCell id="136" value="&lt;font size=&quot;1&quot; color=&quot;#a5a5cf&quot;&gt;&lt;b style=&quot;font-size: 14px;&quot;&gt;Pestañas&lt;/b&gt;&lt;/font&gt;" style="text;html=1;strokeColor=none;fillColor=none;align=center;verticalAlign=middle;whiteSpace=wrap;rounded=1;shadow=0;glass=0;" parent="1" vertex="1">
                    <mxGeometry x="382" y="36" width="60" height="30" as="geometry"/>
                </mxCell>
                <mxCell id="137" value="&lt;font size=&quot;1&quot; color=&quot;#a5a5cf&quot;&gt;&lt;b style=&quot;font-size: 14px;&quot;&gt;Secciones&lt;/b&gt;&lt;/font&gt;" style="text;html=1;strokeColor=none;fillColor=none;align=center;verticalAlign=middle;whiteSpace=wrap;rounded=1;shadow=0;glass=0;" parent="1" vertex="1">
                    <mxGeometry x="690" y="36" width="60" height="30" as="geometry"/>
                </mxCell>
                <mxCell id="138" value="&lt;font size=&quot;1&quot; color=&quot;#a5a5cf&quot;&gt;&lt;b style=&quot;font-size: 14px;&quot;&gt;Tipo de gráfico&lt;/b&gt;&lt;/font&gt;" style="text;html=1;strokeColor=none;fillColor=none;align=center;verticalAlign=middle;whiteSpace=wrap;rounded=1;shadow=0;glass=0;" parent="1" vertex="1">
                    <mxGeometry x="934" y="36" width="165" height="30" as="geometry"/>
                </mxCell>
                <mxCell id="15" value="" style="edgeStyle=none;html=1;strokeColor=#030303;exitX=0;exitY=0.5;exitDx=0;exitDy=0;entryX=1;entryY=0.5;entryDx=0;entryDy=0;" parent="1" source="14" target="3" edge="1">
                    <mxGeometry relative="1" as="geometry"/>
                </mxCell>
                <mxCell id="17" value="" style="edgeStyle=none;html=1;strokeColor=#030303;exitX=0;exitY=0.5;exitDx=0;exitDy=0;entryX=1;entryY=0.5;entryDx=0;entryDy=0;" parent="1" source="16" target="3" edge="1">
                    <mxGeometry relative="1" as="geometry"/>
                </mxCell>
                <mxCell id="32" style="edgeStyle=none;html=1;exitX=0;exitY=0.5;exitDx=0;exitDy=0;strokeColor=#030303;fontColor=#FFFFFF;entryX=1;entryY=0.5;entryDx=0;entryDy=0;" parent="1" source="31" target="5" edge="1">
                    <mxGeometry relative="1" as="geometry">
                        <mxPoint x="475" y="546" as="targetPoint"/>
                    </mxGeometry>
                </mxCell>
                <mxCell id="25" style="edgeStyle=none;html=1;exitX=0;exitY=0.5;exitDx=0;exitDy=0;strokeColor=#030303;fontColor=#FFFFFF;entryX=1;entryY=0.5;entryDx=0;entryDy=0;" parent="1" source="26" target="5" edge="1">
                    <mxGeometry relative="1" as="geometry">
                        <mxPoint x="655" y="601" as="sourcePoint"/>
                    </mxGeometry>
                </mxCell>
                <mxCell id="30" value="" style="edgeStyle=none;html=1;strokeColor=#030303;fontColor=#FFFFFF;entryX=1;entryY=0.5;entryDx=0;entryDy=0;exitX=0;exitY=0.5;exitDx=0;exitDy=0;" parent="1" source="22" target="5" edge="1">
                    <mxGeometry relative="1" as="geometry">
                        <mxPoint x="575" y="521" as="targetPoint"/>
                    </mxGeometry>
                </mxCell>
                <mxCell id="21" value="" style="edgeStyle=none;html=1;strokeColor=#030303;fontColor=#FFFFFF;exitX=0;exitY=0.5;exitDx=0;exitDy=0;entryX=1;entryY=0.5;entryDx=0;entryDy=0;" parent="1" source="18" target="5" edge="1">
                    <mxGeometry relative="1" as="geometry"/>
                </mxCell>
                <mxCell id="40" style="edgeStyle=none;html=1;exitX=0;exitY=0.5;exitDx=0;exitDy=0;entryX=1;entryY=0.5;entryDx=0;entryDy=0;strokeColor=#030303;fontColor=#FFFFFF;" parent="1" source="34" target="11" edge="1">
                    <mxGeometry relative="1" as="geometry"/>
                </mxCell>
                <mxCell id="59" style="edgeStyle=none;html=1;exitX=0;exitY=0.5;exitDx=0;exitDy=0;entryX=1;entryY=0.5;entryDx=0;entryDy=0;strokeColor=#030303;fontColor=#FFFFFF;" parent="1" source="35" target="11" edge="1">
                    <mxGeometry relative="1" as="geometry"/>
                </mxCell>
                <mxCell id="43" style="edgeStyle=none;html=1;exitX=0;exitY=0.5;exitDx=0;exitDy=0;entryX=1;entryY=0.5;entryDx=0;entryDy=0;strokeColor=#030303;fontColor=#FFFFFF;" parent="1" source="36" target="11" edge="1">
                    <mxGeometry relative="1" as="geometry"/>
                </mxCell>
                <mxCell id="44" style="edgeStyle=none;html=1;exitX=0;exitY=0.5;exitDx=0;exitDy=0;entryX=1;entryY=0.5;entryDx=0;entryDy=0;strokeColor=#030303;fontColor=#FFFFFF;" parent="1" source="37" target="11" edge="1">
                    <mxGeometry relative="1" as="geometry"/>
                </mxCell>
                <mxCell id="73" style="edgeStyle=none;html=1;exitX=0;exitY=0.5;exitDx=0;exitDy=0;entryX=1;entryY=0.5;entryDx=0;entryDy=0;strokeColor=#030303;fontColor=#FFFFFF;" parent="1" source="72" target="18" edge="1">
                    <mxGeometry relative="1" as="geometry"/>
                </mxCell>
                <mxCell id="76" style="edgeStyle=none;html=1;exitX=0;exitY=0.5;exitDx=0;exitDy=0;entryX=1;entryY=0.5;entryDx=0;entryDy=0;strokeColor=#030303;fontColor=#FFFFFF;" parent="1" source="75" target="22" edge="1">
                    <mxGeometry relative="1" as="geometry"/>
                </mxCell>
                <mxCell id="78" style="edgeStyle=none;html=1;strokeColor=#030303;fontColor=#FFFFFF;entryX=1;entryY=0.5;entryDx=0;entryDy=0;" parent="1" source="77" target="26" edge="1">
                    <mxGeometry relative="1" as="geometry"/>
                </mxCell>
                <mxCell id="80" style="edgeStyle=none;html=1;exitX=0;exitY=0.5;exitDx=0;exitDy=0;entryX=1;entryY=0.5;entryDx=0;entryDy=0;strokeColor=#030303;fontColor=#FFFFFF;" parent="1" source="79" target="31" edge="1">
                    <mxGeometry relative="1" as="geometry"/>
                </mxCell>
                <mxCell id="107" style="edgeStyle=none;html=1;exitX=0;exitY=0.5;exitDx=0;exitDy=0;entryX=1;entryY=0.5;entryDx=0;entryDy=0;strokeColor=#030303;fontColor=#FFFFFF;" parent="1" source="104" target="56" edge="1">
                    <mxGeometry relative="1" as="geometry"/>
                </mxCell>
                <mxCell id="103" style="edgeStyle=none;html=1;exitX=0;exitY=0.5;exitDx=0;exitDy=0;entryX=1;entryY=0.5;entryDx=0;entryDy=0;strokeColor=#030303;fontColor=#FFFFFF;" parent="1" source="102" target="56" edge="1">
                    <mxGeometry relative="1" as="geometry"/>
                </mxCell>
                <mxCell id="106" style="html=1;exitX=0;exitY=0.5;exitDx=0;exitDy=0;entryX=1;entryY=0.5;entryDx=0;entryDy=0;strokeColor=#030303;fontColor=#FFFFFF;" parent="1" source="105" target="56" edge="1">
                    <mxGeometry relative="1" as="geometry"/>
                </mxCell>
            </root>
        </mxGraphModel>
    </diagram>
</mxfile>